<svg width="15" height="15" viewBox="0 0 15 15" fill="none" xmlns="http://www.w3.org/2000/svg">
<path d="M2.09891 4.64035H2.29891C3.06891 4.64035 3.69891 5.27035 3.69891 6.04035V13.0404C3.69891 13.8104 3.06891 14.4404 2.29891 14.4404H2.09891C1.32891 14.4404 0.698914 13.8104 0.698914 13.0404V6.04035C0.698914 5.27035 1.32891 4.64035 2.09891 4.64035ZM7.69891 0.440353C8.46891 0.440353 9.09891 1.07035 9.09891 1.84035V13.0404C9.09891 13.8104 8.46891 14.4404 7.69891 14.4404C6.92891 14.4404 6.29891 13.8104 6.29891 13.0404V1.84035C6.29891 1.07035 6.92891 0.440353 7.69891 0.440353ZM13.2989 8.44035C14.0689 8.44035 14.6989 9.07035 14.6989 9.84035V13.0404C14.6989 13.8104 14.0689 14.4404 13.2989 14.4404C12.5289 14.4404 11.8989 13.8104 11.8989 13.0404V9.84035C11.8989 9.07035 12.5289 8.44035 13.2989 8.44035Z" fill="#18FF59"/>
</svg>
